<svg xmlns="http://www.w3.org/2000/svg" width="264.001" height="43.182" viewBox="0 0 264.001 43.182"><g transform="translate(-254.732 -349.922)"><g transform="translate(254.732 349.922)"><path d="M310.305,363.558h-5.573v-5.691a7.946,7.946,0,1,0-15.891.12v8.656h9.467V359.47a1.521,1.521,0,1,0-3.043,0v4.084h-3.334v-5.687a4.861,4.861,0,0,1,4.973-4.854,4.915,4.915,0,0,1,4.738,4.945v8.678h.008v6.4h7.181a1.521,1.521,0,0,0,0-3.042H304.74v-3.344h5.686a4.861,4.861,0,0,1,4.854,4.972,4.914,4.914,0,0,1-4.945,4.739h-8.686v.024h-6.383v7.174a1.521,1.521,0,1,0,3.043,0v-4.084h3.334v5.686a4.861,4.861,0,0,1-4.973,4.854,4.915,4.915,0,0,1-4.737-4.945v-8.692h-3.09v8.783a7.945,7.945,0,0,0,15.891,0v-5.71h5.693a7.946,7.946,0,1,0-.121-15.89Z" transform="translate(-275.203 -349.922)" fill="#f5f5f5"/><path d="M307.932,401.58a1.559,1.559,0,1,1-1.559-1.559,1.559,1.559,0,0,1,1.559,1.559" transform="translate(-284.789 -379.989)" fill="#f5f5f5"/><path d="M271.453,399.916H262.8a7.946,7.946,0,1,1-.12-15.89h5.72v3.09h-5.629a4.915,4.915,0,0,0-4.946,4.738,4.861,4.861,0,0,0,4.854,4.973h5.687V393.5h-4.092a1.521,1.521,0,0,1-1.521-1.521h0a1.521,1.521,0,0,1,1.521-1.521h7.182Z" transform="translate(-254.732 -370.39)" fill="#012856"/><g transform="translate(50.166 9.474)"><rect width="3.629" height="23.855" fill="#012856"/><path d="M407.823,385.917a10.118,10.118,0,0,0-6.2,1.951l-.4-1.789H398.29v18.774h3.532V394.366a4.534,4.534,0,0,1,1.875-3.954,6.609,6.609,0,0,1,3.7-1.092,5.409,5.409,0,0,1,3.561,1.156c1.113,1.084,1.113,3.175,1.113,4.068v10.309h3.532V393.832C415.608,388.728,412.843,385.917,407.823,385.917Z" transform="translate(-391.056 -380.998)" fill="#012856"/><path d="M458.5,395.593a2.715,2.715,0,0,1-1.82.677,2.789,2.789,0,0,1-.969-.182,2.245,2.245,0,0,1-1.149-2.162v-9.852h4.952V380.8H454.56v-3.624h-3.532V392.4a17.717,17.717,0,0,0,.1,2.441,5.212,5.212,0,0,0,5.256,4.892,5.341,5.341,0,0,0,4.193-1.62Z" transform="translate(-422.707 -375.753)" fill="#012856"/><path d="M489.21,385.917c-5.969,0-9.533,3.564-9.533,9.533s3.564,9.533,9.533,9.533c3.368,0,6.155-1.16,7.847-3.267l-2.447-2.32a6.915,6.915,0,0,1-5.4,2.184c-3.6,0-5.662-1.625-5.856-4.591h14.664l.072-.519c.451-3.265-.17-5.961-1.8-7.8A9.2,9.2,0,0,0,489.21,385.917Zm0,3.4a6.1,6.1,0,0,1,4.494,1.539,4.3,4.3,0,0,1,1.121,3.051H483.357C483.579,391.025,485.731,389.32,489.21,389.32Z" transform="translate(-439.901 -380.998)" fill="#012856"/><path d="M543.381,385.917a7.488,7.488,0,0,0-5.146,1.725l-.314-1.6h-2.94v18.806h3.532v-10.1c.032-1.57.2-3.2,1.881-4.375a5.11,5.11,0,0,1,3.987-.8l.279-3.49A4.14,4.14,0,0,0,543.381,385.917Z" transform="translate(-473.092 -380.998)" fill="#012856"/><path d="M632.385,385.917a7.489,7.489,0,0,0-5.146,1.724l-.314-1.595h-2.94v18.806h3.532v-10.1c.033-1.571.205-3.2,1.881-4.375a5.107,5.107,0,0,1,3.987-.8l.279-3.49A4.139,4.139,0,0,0,632.385,385.917Z" transform="translate(-526.509 -380.998)" fill="#012856"/><path d="M662.328,385.917c-5.969,0-9.533,3.564-9.533,9.533s3.564,9.533,9.533,9.533,9.533-3.564,9.533-9.533S668.3,385.917,662.328,385.917Zm0,15.63c-3.917,0-5.9-2.052-5.9-6.1s1.986-6.1,5.9-6.1,5.9,2.052,5.9,6.1S666.245,401.547,662.328,401.547Z" transform="translate(-543.8 -380.998)" fill="#012856"/><path d="M717.256,389.32c2.949,0,4.648,1.1,5.346,3.453l.128.43h3.629l-.167-.734c-.976-4.286-4.076-6.552-8.968-6.552-5.847,0-9.339,3.564-9.339,9.533s3.491,9.533,9.339,9.533c4.894,0,8-2.277,8.968-6.585l.166-.733h-3.627l-.128.43c-.7,2.378-2.4,3.485-5.346,3.485-3.831,0-5.774-2.062-5.774-6.13S713.425,389.32,717.256,389.32Z" transform="translate(-576.863 -380.998)" fill="#012856"/><path d="M770.647,385.917c-5.969,0-9.533,3.564-9.533,9.533s3.563,9.533,9.533,9.533c3.368,0,6.155-1.16,7.847-3.267l-2.447-2.32a6.916,6.916,0,0,1-5.4,2.184c-3.6,0-5.662-1.625-5.856-4.591h14.664l.072-.519c.451-3.265-.17-5.961-1.8-7.8A9.2,9.2,0,0,0,770.647,385.917Zm0,3.4a6.1,6.1,0,0,1,4.494,1.539,4.3,4.3,0,0,1,1.121,3.051H764.794C765.016,391.025,767.168,389.32,770.647,389.32Z" transform="translate(-608.809 -380.998)" fill="#012856"/><path d="M822.615,393.642c-3.032-.425-4.557-1.277-4.531-2.51.106-1.883,2.807-2.086,3.953-2.086,1.233.019,4.1.323,4.1,2.732l3.467-.018c-.106-3.527-3.018-5.852-7.429-5.922-4.3,0-7.213,2.036-7.428,5.188-.218,3.233,2.184,5.156,7.344,5.878,3.053.431,4.632,1.211,4.693,2.285,0,1.733-1.323,2.493-4.415,2.538-4.753,0-5.022-2.7-5.032-2.812l-3.4.053a5.193,5.193,0,0,0,1.632,3.771,9.364,9.364,0,0,0,6.487,2.2c.136,0,.273,0,.41-.006,5.365,0,7.847-2.79,7.882-5.384C830.4,395.274,826.24,394.146,822.615,393.642Z" transform="translate(-640.512 -380.95)" fill="#012856"/><path d="M870.126,393.642c-3.032-.425-4.556-1.277-4.531-2.51.107-1.883,2.807-2.086,3.953-2.086,1.233.019,4.1.323,4.1,2.732l3.467-.018c-.106-3.527-3.018-5.852-7.429-5.922-4.3,0-7.213,2.036-7.428,5.188-.218,3.233,2.185,5.156,7.344,5.878,3.053.431,4.632,1.211,4.693,2.285,0,1.733-1.323,2.493-4.415,2.538-4.752,0-5.022-2.7-5.031-2.812l-3.4.053a5.192,5.192,0,0,0,1.632,3.771,9.363,9.363,0,0,0,6.487,2.2c.136,0,.273,0,.41-.006,5.365,0,7.847-2.79,7.882-5.384C877.907,395.274,873.751,394.146,870.126,393.642Z" transform="translate(-669.026 -380.95)" fill="#012856"/><path d="M577.7,386.059a9.689,9.689,0,0,0-6.17,1.9l-.344-1.766h-2.935V411.11h3.525v-7.763a9.894,9.894,0,0,0,5.924,1.737c5.835,0,9.319-3.556,9.319-9.513S583.535,386.059,577.7,386.059Zm-.194,3.427c3.888,0,5.859,2.048,5.859,6.085s-1.971,6.085-5.859,6.085c-3.909,0-5.891-2.047-5.891-6.085S573.6,389.486,577.506,389.486Z" transform="translate(-493.06 -381.084)" fill="#012856"/></g></g><g transform="translate(515.232 359.456)"><path d="M910.263,376.363c0-.286-.128-.627-.741-.627h-.811v1.925h.344v-.676h.445l.479.676h.4l-.511-.723A.548.548,0,0,0,910.263,376.363Zm-1.208-.309h.458c.288,0,.406.089.406.309s-.117.314-.406.314h-.458Z" transform="translate(-907.725 -374.948)" fill="#012856"/><path d="M908,373.766a1.75,1.75,0,1,0,1.75,1.75A1.608,1.608,0,0,0,908,373.766Zm0,3.155a1.258,1.258,0,0,1-1.41-1.405,1.407,1.407,0,1,1,2.815,0A1.256,1.256,0,0,1,908,376.921Z" transform="translate(-906.246 -373.766)" fill="#012856"/></g></g></svg>